<svg width="23" height="23" viewBox="0 0 23 23" fill="none" xmlns="http://www.w3.org/2000/svg">
<path d="M17.8618 1.08654L11.5711 7.37724L5.28037 1.08654C4.50845 0.314623 3.25642 0.314623 2.4845 1.08654L1.08657 2.48448C0.314646 3.2564 0.314646 4.50842 1.08657 5.28034L7.37727 11.571L1.08657 17.8617C0.314646 18.6337 0.314646 19.8857 1.08657 20.6576L2.4845 22.0555C3.25642 22.8275 4.50845 22.8275 5.28037 22.0555L11.5711 15.7648L17.8618 22.0555C18.6337 22.8275 19.8857 22.8275 20.6576 22.0555L22.0556 20.6576C22.8275 19.8857 22.8275 18.6337 22.0556 17.8617L15.7649 11.571L22.0556 5.28034C22.8275 4.50842 22.8275 3.2564 22.0556 2.48448L20.6576 1.08654C19.8857 0.314623 18.6337 0.314623 17.8618 1.08654Z" fill="white"/>
</svg>
