<svg width="26" height="24" viewBox="0 0 26 24" fill="none" xmlns="http://www.w3.org/2000/svg">
<path d="M25.041 5.30849C24.6483 4.39923 24.0821 3.57526 23.374 2.88271C22.6654 2.1881 21.83 1.6361 20.9131 1.25673C19.9623 0.861792 18.9426 0.659638 17.9131 0.662008C16.4688 0.662008 15.0596 1.05752 13.835 1.80459C13.542 1.9833 13.2637 2.17959 13 2.39345C12.7363 2.17959 12.458 1.9833 12.165 1.80459C10.9404 1.05752 9.53125 0.662008 8.08691 0.662008C7.04687 0.662008 6.03906 0.861227 5.08691 1.25673C4.16699 1.63759 3.33789 2.18545 2.62598 2.88271C1.91698 3.57448 1.35062 4.39864 0.958984 5.30849C0.551758 6.25478 0.34375 7.25966 0.34375 8.29384C0.34375 9.26943 0.542969 10.286 0.938477 11.3202C1.26953 12.1845 1.74414 13.081 2.35059 13.9862C3.31152 15.4188 4.63281 16.913 6.27344 18.4276C8.99219 20.9384 11.6846 22.6727 11.7988 22.7431L12.4932 23.1884C12.8008 23.3847 13.1963 23.3847 13.5039 23.1884L14.1982 22.7431C14.3125 22.6698 17.002 20.9384 19.7236 18.4276C21.3643 16.913 22.6855 15.4188 23.6465 13.9862C24.2529 13.081 24.7305 12.1845 25.0586 11.3202C25.4541 10.286 25.6533 9.26943 25.6533 8.29384C25.6563 7.25966 25.4482 6.25478 25.041 5.30849V5.30849Z" fill="#FF5454"/>
</svg>
