<svg width="31" height="31" viewBox="0 0 31 31" fill="none" xmlns="http://www.w3.org/2000/svg">
<path d="M25.6099 8.22657L13.7311 12.0861C13.5916 12.1759 13.4316 12.2286 13.2661 12.2391L9.18762 13.5624H26.1562C26.4132 13.5624 26.6596 13.6645 26.8413 13.8462C27.0229 14.0279 27.125 14.2743 27.125 14.5312V24.2187C27.125 25.5033 26.6147 26.7354 25.7063 27.6437C24.7979 28.5521 23.5659 29.0624 22.2812 29.0624H8.71875C7.4341 29.0624 6.20208 28.5521 5.2937 27.6437C4.38532 26.7354 3.875 25.5033 3.875 24.2187V14.5312C3.875 14.3258 3.93893 14.134 4.04937 13.9751L3.67156 12.8088C3.27468 11.5871 3.37934 10.2577 3.96251 9.11321C4.54568 7.96867 5.5596 7.10265 6.78125 6.70563L19.6792 2.51482C20.9009 2.11795 22.2302 2.2226 23.3747 2.80577C24.5193 3.38894 25.3853 4.40286 25.7823 5.62451L26.2318 7.00595C26.3113 7.25003 26.2906 7.51567 26.1744 7.74454C26.0581 7.9734 25.8558 8.14677 25.6118 8.22657H25.6099ZM18.3559 8.54626L20.8475 4.23338C20.654 4.2556 20.4631 4.29714 20.2779 4.35738L17.8657 5.14013L15.3314 9.52857L18.3559 8.54626V8.54626ZM22.8024 4.71195C22.7911 4.73633 22.7789 4.76024 22.7656 4.78363L21.111 7.65113L24.0909 6.68238L23.9397 6.2232C23.7406 5.60631 23.3401 5.07413 22.8024 4.71195V4.71195ZM15.1106 6.03526L12.0881 7.01757L9.55381 11.406L12.5782 10.4237L15.1125 6.03526H15.1106ZM5.66525 12.6712L6.80256 12.3031L9.33681 7.9127L7.37993 8.5482C6.6473 8.78681 6.03941 9.30658 5.68989 9.99326C5.34037 10.6799 5.27785 11.4773 5.51606 12.2101L5.66525 12.6712V12.6712Z" fill="#FF5454"/>
</svg>
